<svg width="24" height="24" viewBox="0 0 24 24" fill="none" xmlns="http://www.w3.org/2000/svg">
    <path
        d="M12.1043 14.4922C11.9966 14.4922 11.8973 14.4747 11.8063 14.4395C11.7153 14.4042 11.6261 14.3429 11.5388 14.2557L7.15056 9.86725C7.05689 9.77375 7.00689 9.659 7.00056 9.523C6.99406 9.38717 7.04406 9.26608 7.15056 9.15975C7.25689 9.05325 7.37481 9 7.50431 9C7.63381 9 7.75173 9.05325 7.85806 9.15975L12.1043 13.4057L16.3506 9.15975C16.4441 9.06608 16.5588 9.01608 16.6948 9.00975C16.8306 9.00325 16.9517 9.05325 17.0581 9.15975C17.1646 9.26608 17.2178 9.384 17.2178 9.5135C17.2178 9.643 17.1646 9.76092 17.0581 9.86725L12.6698 14.2557C12.5825 14.3429 12.4933 14.4042 12.4023 14.4395C12.3113 14.4747 12.212 14.4922 12.1043 14.4922Z"
        fill="currentColor" />
</svg>