<svg width="173" height="42" viewBox="0 0 173 42" fill="none" xmlns="http://www.w3.org/2000/svg">
<path d="M14.5584 15.5867V24.8053H11.6855V2.70599H19.0729C20.2938 2.70599 21.3566 2.88489 22.2616 3.24269C23.1667 3.6005 23.9138 4.08457 24.5031 4.69493C25.1135 5.28424 25.566 5.98932 25.8606 6.81015C26.1553 7.60994 26.3026 8.45182 26.3026 9.33579C26.3026 10.2619 26.1343 11.1353 25.7974 11.9561C25.4607 12.7559 24.9556 13.4715 24.2821 14.1029C23.6297 14.7133 22.8088 15.1973 21.8196 15.5552C20.8305 15.913 19.6939 16.0919 18.41 16.0919C17.6523 16.0919 16.9577 16.0497 16.3263 15.9656C15.6949 15.8603 15.1056 15.734 14.5584 15.5867ZM14.5584 4.09509V14.2924C15.0003 14.4608 15.495 14.5765 16.0422 14.6396C16.5894 14.6818 17.1893 14.7028 17.8417 14.7028C18.7888 14.7028 19.5992 14.5449 20.2726 14.2292C20.9462 13.9135 21.5039 13.5031 21.9458 12.998C22.3878 12.4928 22.7035 11.9351 22.893 11.3247C23.1035 10.6933 23.2087 10.0724 23.2087 9.46207C23.2087 8.83067 23.093 8.19926 22.8614 7.56785C22.651 6.91539 22.3247 6.3366 21.8827 5.83147C21.4407 5.3053 20.883 4.88436 20.2095 4.56865C19.5361 4.25295 18.7572 4.09509 17.8733 4.09509H14.5584ZM38.6239 2.70599H41.4968V24.8053H38.6239V2.70599ZM74.4606 2.70599H75.9129V25.1842H75.755L58.2334 7.91512H58.1071V24.8053H56.6549V2.32715H56.8128L74.3344 19.5962H74.4606V2.70599ZM87.1713 19.2174H89.3181C89.3391 19.5752 89.4232 20.0172 89.5706 20.5433C89.7179 21.0484 90.0021 21.543 90.423 22.0271C90.8439 22.5112 91.4543 22.9321 92.2541 23.2899C93.0538 23.6266 94.1168 23.7951 95.4427 23.7951C97.1054 23.7951 98.4314 23.4794 99.4206 22.848C100.431 22.2165 100.936 21.2169 100.936 19.8488C100.936 18.7544 100.62 17.8808 99.9889 17.2284C99.3575 16.576 98.5576 16.0287 97.5895 15.5867C96.6424 15.1238 95.611 14.7133 94.4956 14.3555C93.3801 13.9977 92.3383 13.5662 91.3702 13.0611C90.423 12.556 89.6338 11.9246 89.0024 11.1669C88.371 10.4092 88.0553 9.40946 88.0553 8.16769C88.0553 7.22057 88.2447 6.3787 88.6235 5.64205C89.0234 4.9054 89.5495 4.29505 90.202 3.81096C90.8755 3.32688 91.6437 2.95856 92.5067 2.70599C93.3907 2.45343 94.3166 2.32715 95.2849 2.32715C96.2109 2.32715 97.0948 2.4429 97.9368 2.67442C98.7996 2.88489 99.5679 3.21112 100.241 3.65311C100.915 4.07405 101.473 4.60022 101.915 5.23163C102.357 5.842 102.641 6.53655 102.767 7.31528H100.62C100.452 6.07351 99.8836 5.16849 98.9155 4.60022C97.9684 4.01091 96.8107 3.71625 95.4427 3.71625C94.6219 3.71625 93.8958 3.82149 93.2644 4.03195C92.633 4.22138 92.0963 4.48447 91.6543 4.82122C91.2333 5.13692 90.907 5.51577 90.6756 5.95775C90.465 6.39974 90.3599 6.8733 90.3599 7.37842C90.3599 8.28344 90.686 9.00956 91.3386 9.55679C91.991 10.104 92.8013 10.5881 93.7695 11.009C94.7586 11.43 95.8216 11.8299 96.9581 12.2087C98.1157 12.5876 99.1785 13.0611 100.147 13.6294C101.136 14.1766 101.957 14.8712 102.609 15.713C103.262 16.5339 103.588 17.5967 103.588 18.9016C103.588 19.8488 103.398 20.7117 103.02 21.4904C102.641 22.2691 102.104 22.9321 101.41 23.4794C100.715 24.0266 99.873 24.4475 98.8839 24.7422C97.9157 25.0369 96.8213 25.1842 95.6006 25.1842C94.4009 25.1842 93.296 25.0473 92.2857 24.7738C91.2754 24.479 90.3915 24.0792 89.6338 23.5741C88.8971 23.0479 88.3078 22.4165 87.8658 21.6798C87.4448 20.9432 87.2133 20.1223 87.1713 19.2174ZM115.837 24.8053V2.70599H118.71V15.1448L130.549 2.70599H132.128L124.109 11.2616L133.959 24.8053H130.675L122.278 13.219L118.71 17.039V24.8053H115.837ZM157.277 18.3018H146.385L143.608 24.8053H142.156L151.5 2.70599H153.079L163.37 24.8053H160.309L157.277 18.3018ZM156.615 16.8811L151.658 6.24189H151.531L146.986 16.8811H156.615Z" fill="white"/>
<path d="M30.4614 38.488L30.4276 37.4732L35.2083 32.5572H36.1667L32.6826 36.2104L32.2091 36.7178L30.4614 38.488ZM29.7398 40.4498V32.5572H30.5742V40.4498H29.7398ZM35.4112 40.4498L32.0061 36.5261L32.5699 35.9172L36.4034 40.4498H35.4112ZM42.5164 40.5175C41.5092 40.5175 40.7162 40.2281 40.1373 39.6493C39.5586 39.0705 39.2692 38.2136 39.2692 37.0786V32.5572H40.1035V37.0447C40.1035 37.9768 40.3141 38.6646 40.7349 39.1081C41.1559 39.5516 41.7497 39.7733 42.5164 39.7733C43.2907 39.7733 43.8883 39.5516 44.3092 39.1081C44.7301 38.6646 44.9406 37.9768 44.9406 37.0447V32.5572H45.7524V37.0786C45.7524 38.2136 45.463 39.0705 44.8842 39.6493C44.313 40.2281 43.5237 40.5175 42.5164 40.5175ZM43.5199 31.6552C43.3922 31.6552 43.2795 31.6101 43.1816 31.5199C43.084 31.4297 43.0351 31.3132 43.0351 31.1704C43.0351 31.0276 43.084 30.911 43.1816 30.8208C43.2795 30.7306 43.3922 30.6855 43.5199 30.6855C43.6552 30.6855 43.7679 30.7306 43.8581 30.8208C43.956 30.911 44.0047 31.0276 44.0047 31.1704C44.0047 31.3132 43.956 31.4297 43.8581 31.5199C43.7679 31.6101 43.6552 31.6552 43.5199 31.6552ZM41.5129 31.6552C41.3776 31.6552 41.2612 31.6101 41.1634 31.5199C41.0732 31.4297 41.0281 31.3132 41.0281 31.1704C41.0281 31.0276 41.0732 30.911 41.1634 30.8208C41.2612 30.7306 41.3776 30.6855 41.5129 30.6855C41.6407 30.6855 41.7535 30.7306 41.8512 30.8208C41.949 30.911 41.9977 31.0276 41.9977 31.1704C41.9977 31.3132 41.949 31.4297 41.8512 31.5199C41.7535 31.6101 41.6407 31.6552 41.5129 31.6552ZM49.958 40.4498V32.5572H50.7924V39.7282H55.2122V40.4498H49.958ZM57.026 40.4498L60.6341 32.5572H61.4571L65.0652 40.4498H64.1857L60.8708 33.0421H61.2091L57.8942 40.4498H57.026ZM58.4467 38.3414L58.6947 37.6649H63.2837L63.5318 38.3414H58.4467ZM68.0621 40.4498V32.5572H68.8965V39.7282H73.3164V40.4498H68.0621ZM76.3929 40.4498V32.5572H77.2273V40.4498H76.3929ZM83.6627 40.5175C83.0764 40.5175 82.5127 40.4235 81.9715 40.2356C81.4377 40.0401 81.0243 39.7921 80.7312 39.4915L81.0582 38.8488C81.3362 39.1194 81.7083 39.3487 82.1744 39.5366C82.648 39.717 83.1441 39.8072 83.6627 39.8072C84.1588 39.8072 84.5609 39.747 84.8692 39.6268C85.1849 39.4989 85.4142 39.3298 85.557 39.1194C85.7073 38.9089 85.7825 38.6758 85.7825 38.4203C85.7825 38.1121 85.6923 37.864 85.5119 37.6762C85.3389 37.4883 85.1098 37.3417 84.8241 37.2364C84.5384 37.1237 84.2227 37.026 83.877 36.9433C83.5312 36.8605 83.1854 36.7741 82.8396 36.6839C82.4939 36.5863 82.1744 36.4584 81.8813 36.3006C81.5956 36.1427 81.3626 35.936 81.1822 35.6804C81.0093 35.4173 80.9229 35.0754 80.9229 34.6544C80.9229 34.2636 81.0243 33.9064 81.2273 33.5833C81.4377 33.2525 81.7572 32.9895 82.1857 32.794C82.6141 32.591 83.1628 32.4896 83.8319 32.4896C84.2754 32.4896 84.7151 32.5534 85.1511 32.6813C85.587 32.8015 85.9629 32.9706 86.2786 33.1886L85.9967 33.8539C85.6584 33.6284 85.2976 33.463 84.9143 33.3578C84.5384 33.2525 84.1739 33.1999 83.8206 33.1999C83.347 33.1999 82.9562 33.2638 82.648 33.3916C82.3397 33.5194 82.1106 33.6922 81.9602 33.9102C81.8174 34.1207 81.746 34.3613 81.746 34.6319C81.746 34.9401 81.8323 35.1881 82.0053 35.376C82.1857 35.5639 82.4187 35.7105 82.7043 35.8157C82.9975 35.921 83.317 36.0149 83.6627 36.0976C84.0085 36.1804 84.3505 36.2706 84.6888 36.3682C85.0345 36.4659 85.3502 36.5937 85.6359 36.7516C85.929 36.902 86.162 37.1049 86.3349 37.3604C86.5154 37.616 86.6056 37.9506 86.6056 38.3639C86.6056 38.7473 86.5003 39.1043 86.2898 39.4351C86.0794 39.7582 85.7561 40.0214 85.3202 40.2243C84.8917 40.4198 84.3392 40.5175 83.6627 40.5175ZM91.538 40.4498V33.2788H88.7643V32.5572H95.1461V33.2788H92.3724V40.4498H91.538ZM98.9145 36.0864H103.086V36.7967H98.9145V36.0864ZM99.0047 39.7282H103.752V40.4498H98.1703V32.5572H103.582V33.2788H99.0047V39.7282ZM107.404 40.4498V32.5572H108.092L111.7 38.7135H111.339L114.913 32.5572H115.601V40.4498H114.801V33.8088H114.992L111.7 39.4464H111.305L107.99 33.8088H108.205V40.4498H107.404ZM118.601 40.4498L122.209 32.5572H123.032L126.64 40.4498H125.761L122.446 33.0421H122.784L119.469 40.4498H118.601ZM120.022 38.3414L120.27 37.6649H124.859L125.107 38.3414H120.022ZM130.648 40.5175C130.205 40.5175 129.787 40.4198 129.397 40.2243C129.013 40.0289 128.705 39.7508 128.472 39.39L128.957 38.8262C129.175 39.1419 129.427 39.3825 129.712 39.5478C129.998 39.7132 130.314 39.7959 130.659 39.7959C131.637 39.7959 132.125 39.217 132.125 38.0595V33.2788H129.239V32.5572H132.948V38.0257C132.948 38.86 132.753 39.484 132.362 39.8974C131.979 40.3107 131.407 40.5175 130.648 40.5175ZM135.714 40.4498L139.322 32.5572H140.146L143.754 40.4498H142.875L139.559 33.0421H139.897L136.583 40.4498H135.714ZM137.135 38.3414L137.383 37.6649H141.973L142.221 38.3414H137.135Z" fill="white"/>
</svg>
